<svg id="Layer_1" data-name="Layer 1" xmlns="http://www.w3.org/2000/svg" viewBox="0 0 66.83 42.04"><defs><style>.cls-1{fill:#fff;}</style></defs><path class="cls-1" d="M27.56.15c11.16-.45,22.7-.09,33.23,4,2.76,1.18,6.13,3.07,6,6.53,0,7,0,13.93,0,20.89-.44,4.24-5.2,5.82-8.62,7.09a93,93,0,0,1-47.6.52C6.71,37.92,1.89,36.62.22,32.48c-.35-6.93,0-13.89-.17-20.83C-.43,8,3,5.59,5.89,4.33A63.16,63.16,0,0,1,27.56.15ZM23.29,2.51C15.92,3.44,7.54,4,2,9.57c.93,4.41,6,5.31,9.63,6.63a95.19,95.19,0,0,0,44.62-.27c3.2-1.25,7.91-2.17,8.77-6-2.6-3.85-7.55-4.81-11.73-6C43.41,2.14,33.27,1,23.29,2.51Zm-21,11.73c0,5.83-.15,11.66.05,17.48,0,1.81,2,2.65,3.31,3.49,8.34,3.95,17.78,4.38,26.86,4.57,0-6.36,0-12.73,0-19.1C22.26,20.24,11.27,19.87,2.32,14.24ZM34.4,20.69q0,9.57,0,19.16c10.32-.71,22.4-.13,30.57-7.53,0-6.08-.07-12.17,0-18.25C56,19.85,44.81,20.26,34.4,20.69Z"/></svg>