<svg id="图层_1" data-name="图层 1" xmlns="http://www.w3.org/2000/svg" viewBox="0 0 66.67 24.99"><defs><style>.cls-1{fill:#fff;isolation:isolate;}</style></defs><path class="cls-1" d="M1.23,2.94C1.65,1.48,2.79-.46,4.62.1c7.67,1.71,15.43,3.08,23.1,4.83C35.52,7,43.13,3.23,50.81,2.3c4.38-.43,8.62-2.65,13-2.15,2.62,3.92,2.87,8.93,2.84,13.51-.47,3.89-.46,8.49-3.6,11.33-10-2.08-20.15-4-30.3-5.5C23,21.1,13.21,22.73,3.53,24.87c-.9-.91-2-1.76-2.24-3.1A35.91,35.91,0,0,1,1.23,2.94M3.1,2.85C1.34,9.3.73,16.85,4,22.92c2.9-6.56,2.61-14.28.28-21l-1.13.9m59-.77c-1.75,6.69-2.18,14.1.32,20.65,3.31-5.91,2.23-13.32,1-19.71l-1.29-.94M6.76,2.55a49.61,49.61,0,0,1-.15,19.76c8.48-1.44,16.94-2.94,25.41-4.45.16-3.33.11-6.67.08-10C23.78,5.58,15.22,4.23,6.76,2.55m27.5,5.29q-.12,4.89,0,9.78c8.43,1.81,17,3.06,25.48,4.53a45.62,45.62,0,0,1-.09-19.6C51.19,4.35,42.66,5.79,34.26,7.84Z"/></svg>